<?xml version="1.0" encoding="UTF-8"?>
<svg width="88px" height="68px" viewBox="0 0 88 68" version="1.1" xmlns="http://www.w3.org/2000/svg" xmlns:xlink="http://www.w3.org/1999/xlink">
    <title>noun_filter_787737</title>
    <g id="Page-1" stroke="none" stroke-width="1" fill="none" fill-rule="evenodd">
        <g id="PointsMatrix_Rules" transform="translate(-7464.000000, -1454.000000)" fill="#FFFFFF" fill-rule="nonzero">
            <g id="noun_edit_3555214" transform="translate(7464.000000, 938.000000)">
                <g id="noun_edit_3094244" transform="translate(0.000000, 213.000000)">
                    <g id="noun_filter_787737" transform="translate(0.000000, 303.000000)">
                        <path d="M87.5,10.375 C87.5,13.136 85.262,15.375 82.5,15.375 L5.5,15.375 C2.738,15.375 0.5,13.136 0.5,10.375 L0.5,5.708 C0.5,2.947 2.738,0.708 5.5,0.708 L82.5,0.708 C85.262,0.708 87.5,2.947 87.5,5.708 L87.5,10.375 Z" id="Path"></path>
                        <path d="M72.5,36.333 C72.5,39.095 70.262,41.333 67.5,41.333 L20.5,41.333 C17.738,41.333 15.5,39.095 15.5,36.333 L15.5,31.667 C15.5,28.905 17.738,26.667 20.5,26.667 L67.5,26.667 C70.262,26.667 72.5,28.905 72.5,31.667 L72.5,36.333 Z" id="Path"></path>
                        <path d="M57.5,62.292 C57.5,65.053 55.262,67.292 52.5,67.292 L35.5,67.292 C32.738,67.292 30.5,65.053 30.5,62.292 L30.5,57.625 C30.5,54.864 32.738,52.625 35.5,52.625 L52.5,52.625 C55.262,52.625 57.5,54.864 57.5,57.625 L57.5,62.292 Z" id="Path"></path>
                    </g>
                </g>
            </g>
        </g>
    </g>
</svg>